<svg width="56" height="57" viewBox="0 0 56 57" fill="none" xmlns="http://www.w3.org/2000/svg">
<mask id="mask0_1_921" style="mask-type:alpha" maskUnits="userSpaceOnUse" x="0" y="0" width="56" height="57">
<rect x="0.0712891" y="0.575012" width="55.7089" height="55.7089" fill="#D9D9D9"/>
</mask>
<g mask="url(#mask0_1_921)">
<path d="M13.9985 46.9991C12.0642 46.9991 10.42 46.3221 9.06597 44.9681C7.71193 43.6141 7.03491 41.9699 7.03491 40.0355C7.03491 38.1012 7.71193 36.457 9.06597 35.103C10.42 33.7489 12.0642 33.0719 13.9985 33.0719C15.9329 33.0719 17.5771 33.7489 18.9311 35.103C20.2851 36.457 20.9621 38.1012 20.9621 40.0355C20.9621 41.9699 20.2851 43.6141 18.9311 44.9681C17.5771 46.3221 15.9329 46.9991 13.9985 46.9991ZM41.853 46.9991C39.9187 46.9991 38.2745 46.3221 36.9204 44.9681C35.5664 43.6141 34.8894 41.9699 34.8894 40.0355C34.8894 38.1012 35.5664 36.457 36.9204 35.103C38.2745 33.7489 39.9187 33.0719 41.853 33.0719C43.7873 33.0719 45.4315 33.7489 46.7856 35.103C48.1396 36.457 48.8166 38.1012 48.8166 40.0355C48.8166 41.9699 48.1396 43.6141 46.7856 44.9681C45.4315 46.3221 43.7873 46.9991 41.853 46.9991ZM27.9258 23.7871C25.9914 23.7871 24.3472 23.1101 22.9932 21.756C21.6392 20.402 20.9621 18.7578 20.9621 16.8235C20.9621 14.8891 21.6392 13.245 22.9932 11.8909C24.3472 10.5369 25.9914 9.85986 27.9258 9.85986C29.8601 9.85986 31.5043 10.5369 32.8583 11.8909C34.2124 13.245 34.8894 14.8891 34.8894 16.8235C34.8894 18.7578 34.2124 20.402 32.8583 21.756C31.5043 23.1101 29.8601 23.7871 27.9258 23.7871Z" fill="#002868"/>
</g>
</svg>
