<svg width="56" height="57" viewBox="0 0 56 57" fill="none" xmlns="http://www.w3.org/2000/svg">
<mask id="mask0_1_914" style="mask-type:alpha" maskUnits="userSpaceOnUse" x="0" y="0" width="56" height="57">
<rect x="0.0712891" y="0.687317" width="55.7089" height="55.7089" fill="#D9D9D9"/>
</mask>
<g mask="url(#mask0_1_914)">
<path d="M18.6409 37.8266H30.2469V26.2206H18.6409V37.8266ZM18.6409 21.5781H46.4953V9.97212H18.6409V21.5781ZM34.8893 37.8266H46.4953V26.2206H34.8893V37.8266ZM18.6409 42.469C17.3642 42.469 16.2713 42.0144 15.3622 41.1053C14.453 40.1962 13.9984 39.1032 13.9984 37.8266V9.97212C13.9984 8.69546 14.453 7.60256 15.3622 6.69342C16.2713 5.78428 17.3642 5.32971 18.6409 5.32971H46.4953C47.772 5.32971 48.8649 5.78428 49.774 6.69342C50.6832 7.60256 51.1377 8.69546 51.1377 9.97212V37.8266C51.1377 39.1032 50.6832 40.1962 49.774 41.1053C48.8649 42.0144 47.772 42.469 46.4953 42.469H18.6409ZM9.35603 51.7538C8.07937 51.7538 6.98647 51.2993 6.07733 50.3901C5.16819 49.481 4.71362 48.3881 4.71362 47.1114V14.6145H9.35603V47.1114H41.8529V51.7538H9.35603Z" fill="#002868"/>
</g>
</svg>
