<svg width="24" height="25" viewBox="0 0 24 25" fill="none" xmlns="http://www.w3.org/2000/svg">
<g id="lucide/thumbs-down">
<path id="Vector" d="M16.9999 14.5V2.5M8.99992 18.62L9.99992 14.5H4.16992C3.85943 14.5 3.55321 14.4277 3.27549 14.2889C2.99778 14.15 2.75622 13.9484 2.56992 13.7C2.38363 13.4516 2.25772 13.1633 2.20218 12.8578C2.14664 12.5523 2.16298 12.2381 2.24992 11.94L4.57992 3.94C4.70109 3.52457 4.95373 3.15964 5.29992 2.9C5.64611 2.64036 6.06718 2.5 6.49992 2.5H19.9999C20.5304 2.5 21.0391 2.71071 21.4141 3.08579C21.7892 3.46086 21.9999 3.96957 21.9999 4.5V12.5C21.9999 13.0304 21.7892 13.5391 21.4141 13.9142C21.0391 14.2893 20.5304 14.5 19.9999 14.5H17.2399C16.8678 14.5002 16.5032 14.6042 16.187 14.8003C15.8707 14.9964 15.6155 15.2768 15.4499 15.61L11.9999 22.5C11.5283 22.4942 11.0642 22.3818 10.6421 22.1714C10.2201 21.961 9.85099 21.6579 9.56252 21.2848C9.27404 20.9117 9.07361 20.4782 8.97618 20.0168C8.87876 19.5554 8.88688 19.0779 8.99992 18.62Z" stroke="#292929" stroke-width="2" stroke-linecap="round" stroke-linejoin="round"/>
</g>
</svg>
